<svg width="84" height="76" fill="none" xmlns="http://www.w3.org/2000/svg"><rect y="34.7" width="49.074" height="49.074" rx="4" transform="rotate(-45 0 34.7)" fill="#8F33BB"/><path d="M36.37 39.585h-2.12a21.205 21.205 0 00-8.47 1.437 21.13 21.13 0 00-7.195 4.677l-.585.68v20.086h9.94V55.063l1.34-1.504.61-.703a26.819 26.819 0 0111.474-6.939 15.998 15.998 0 01-4.994-6.332zm47.118 6.041a21.132 21.132 0 00-7.195-4.677 21.203 21.203 0 00-8.47-1.436 25.34 25.34 0 00-2.656.145 16.002 16.002 0 01-4.872 5.944 26.602 26.602 0 0112.181 7.278l.61.679 1.315 1.504V66.49H84V46.305l-.512-.679zM34.177 34.855h.755c-.35-3 .178-6.038 1.523-8.746a15.674 15.674 0 016.054-6.514 9.95 9.95 0 00-3.784-3.391 10 10 0 00-9.836.412 9.94 9.94 0 00-3.484 3.697 9.888 9.888 0 00.21 9.8 9.945 9.945 0 003.64 3.546 9.997 9.997 0 004.922 1.293v-.097zm32.476-1.82c.03.558.03 1.117 0 1.674.468.074.94.114 1.413.121h.463a9.994 9.994 0 004.834-1.546 9.937 9.937 0 003.44-3.716 9.888 9.888 0 00-.273-9.773 9.946 9.946 0 00-3.644-3.52 9.998 9.998 0 00-9.818.025 9.943 9.943 0 00-3.626 3.538 15.868 15.868 0 015.277 5.693 15.79 15.79 0 011.934 7.504zM50.671 43.904c6.015 0 10.89-4.856 10.89-10.845 0-5.989-4.875-10.844-10.89-10.844-6.014 0-10.89 4.855-10.89 10.845 0 5.988 4.876 10.844 10.89 10.844z" fill="#fff"/><path d="M51.256 49.677a23.701 23.701 0 00-9.334 1.513 23.62 23.62 0 00-7.988 5.038l-.61.679v15.356a3.796 3.796 0 001.172 2.672A3.828 3.828 0 0037.223 76h27.993a3.84 3.84 0 002.726-1.064 3.807 3.807 0 001.172-2.672V56.955l-.585-.727a23.353 23.353 0 00-7.957-5.05 23.43 23.43 0 00-9.316-1.5z" fill="#fff"/></svg>