<svg width="80" height="72" fill="none" xmlns="http://www.w3.org/2000/svg"><rect y="34.7" width="49.074" height="49.074" rx="4" transform="rotate(-45 0 34.7)" fill="#8F33BB"/><path d="M78 8H18a2.002 2.002 0 00-2 2v2a2.003 2.003 0 002 2h27v5H28.5v-1a1 1 0 00-2 0v1h-1.99a2.008 2.008 0 00-2.01 2v2a2.007 2.007 0 002.01 2h1.99v4H25a2.003 2.003 0 00-2 2v9h-2a1 1 0 000 2h2a2.003 2.003 0 002 2h1.5v2a1 1 0 002 0v-2H30a2.003 2.003 0 002-2V31a2.003 2.003 0 00-2-2h-1.5v-4H45v4h-3a3.004 3.004 0 00-3 3v18h-3.481a2.012 2.012 0 00-2.019 2v2a2.011 2.011 0 002.019 2H45v10H34v-2a1 1 0 00-2 0v2h-1.014A1.995 1.995 0 0029 68v2a1.996 1.996 0 001.986 2h34.028A1.996 1.996 0 0067 70v-2a1.995 1.995 0 00-1.986-2H64v-2a1 1 0 00-2 0v2H51V56h9.481a2.012 2.012 0 002.019-2v-2a2.011 2.011 0 00-2.019-2H57V32a3.004 3.004 0 00-3-3h-3v-4h16.5v4H66a2.003 2.003 0 00-2 2v11a2.003 2.003 0 002 2h1.5v2a1 1 0 002 0v-2H71a2.003 2.003 0 002-2h2a1 1 0 000-2h-2v-9a2.003 2.003 0 00-2-2h-1.5v-4h1.99a2.008 2.008 0 002.01-2v-2a2.007 2.007 0 00-2.01-2H69.5v-1a1 1 0 00-2 0v1H51v-5h27a2.003 2.003 0 002-2v-2a2.002 2.002 0 00-2-2zM65 68l-.001 2H31l-.014-2H65zm-4.5-16l.002 1.992c-.001.002-.006.008-.02.008H35.5l.019-2H60.5zM78 12H50a1 1 0 00-1 1v16h-2V13a1 1 0 00-1-1H18v-2h60v2z" fill="#fff"/></svg>