<svg width="70" height="70" fill="none" xmlns="http://www.w3.org/2000/svg"><rect y="34.7" width="49.074" height="49.074" rx="4" transform="rotate(-45 0 34.7)" fill="#8F33BB"/><path d="M50.686 28.552C56.357 37.163 42.179 63 36.507 63c-5.671 0-5.671-2.87-8.507-2.87-2.836 0-2.836 2.87-8.507 2.87C13.82 63-.357 37.164 5.314 28.552c5.672-8.613 14.179-8.613 19.85-5.742v-8.612C9.227 23.01 5.626 10.696 5.626 10.696S13.169.39 25.164 14.198V8.457h5.672V22.81c5.671-2.87 14.178-2.87 19.85 5.742z" fill="#fff"/></svg>