<svg width="70" height="70" fill="none" xmlns="http://www.w3.org/2000/svg"><rect y="34.7" width="49.074" height="49.074" rx="4" transform="rotate(-45 0 34.7)" fill="#8F33BB"/><path d="M60.03 33.95l8.333-19.53L66.129 9H47.145S28.418 24.314 22.233 36.53c-.171.345-.343.603-.43.947 0 .086-.085.172-.085.258C20.601 40.23 20 43.241 20 46.425c0 9.033 4.982 16.346 11.167 16.346h3.264c0 .172-.085.258-.085.43 0 2.667 2.233 4.904 4.896 4.904s4.896-2.237 4.896-4.904v-.43h8.677c6.184 0 11.167-7.313 11.167-16.347 0-5.076-1.632-9.55-3.952-12.474zM39.242 66.04a2.899 2.899 0 01-2.92-2.925c0-.172.085-.258.085-.43h5.584c0 .172.086.258.086.43.086 1.548-1.203 2.925-2.835 2.925zm-4.295-39.145l3.35-3.355 15.892-.087-3.436 3.442H34.947zm25.942 19.787c0 6.367-3.264 11.7-7.13 11.7-3.865 0-7.13-5.333-7.13-11.7 0-6.366 3.265-11.7 7.13-11.7 3.866 0 7.13 5.334 7.13 11.7z" fill="#fff"/></svg>