<svg width="41" height="41" fill="none" xmlns="http://www.w3.org/2000/svg"><path d="M20.494 13.664c-3.764 0-6.836 3.072-6.836 6.836 0 3.764 3.072 6.836 6.836 6.836 3.765 0 6.837-3.072 6.837-6.836 0-3.764-3.072-6.836-6.837-6.836zM40.998 20.5c0-2.83.025-5.636-.134-8.462-.159-3.282-.907-6.195-3.307-8.595C35.15 1.037 32.244.293 28.96.135c-2.83-.16-5.636-.133-8.461-.133-2.831 0-5.636-.026-8.462.133-3.282.159-6.195.908-8.595 3.308C1.037 5.848.293 8.756.135 12.038c-.16 2.83-.133 5.636-.133 8.462 0 2.826-.026 5.636.133 8.462.159 3.282.908 6.195 3.308 8.595 2.405 2.405 5.313 3.15 8.595 3.308 2.83.16 5.636.133 8.462.133 2.83 0 5.636.026 8.461-.133 3.283-.159 6.196-.908 8.596-3.308 2.405-2.405 3.148-5.313 3.307-8.595.165-2.826.134-5.631.134-8.462zM20.495 31.018A10.504 10.504 0 019.975 20.5c0-5.82 4.698-10.518 10.518-10.518A10.503 10.503 0 0131.012 20.5c0 5.82-4.698 10.518-10.519 10.518zm10.949-19.01a2.453 2.453 0 01-2.457-2.457 2.453 2.453 0 012.457-2.457 2.454 2.454 0 012.27 3.397 2.455 2.455 0 01-2.27 1.516z" fill="#fff"/></svg>