<svg width="81" height="66" viewBox="0 0 81 66" fill="none" xmlns="http://www.w3.org/2000/svg">
<g clip-path="url(#clip0_11_741)">
<path d="M66.4415 5.25102C65.351 2.30168 63.2339 1.72114 60.0612 2.00703C61.6041 4.86594 63.3354 6.29832 66.4415 5.25102Z" fill="#4C1269"/>
<path d="M66.1601 5.71779C64.8174 6.08244 63.3789 6.05327 62.2334 5.2627C61.6438 5.64242 61.0853 6.06871 60.5629 6.53754C62.9555 8.01367 64.4607 7.71611 66.1601 5.71779Z" fill="#4C1269"/>
<path d="M66.5981 4.66761C66.862 2.3338 66.1863 0.991867 63.5675 0C63.5241 0.619635 63.5241 1.24157 63.5675 1.86121C64.9334 2.24045 65.9484 3.18564 66.5981 4.66761Z" fill="#4C1269"/>
<path d="M71.9662 11.2139C72.0097 10.8989 72.0184 10.6305 72.0213 10.5984C72.1837 7.43027 70.4581 5.83453 67.2535 4.47217C67.2535 5.17231 67.3231 7.0977 67.9611 8.53299C68.0394 8.62634 68.5324 10.5459 71.9662 11.2139Z" fill="#4C1269"/>
<path d="M71.4963 11.491C69.5997 11.0476 68.3352 10.1841 67.7262 8.91797C66.9179 8.98379 66.1159 9.11352 65.3278 9.30596C66.9403 12.0832 68.5875 12.655 71.4963 11.491Z" fill="#4C1269"/>
<path d="M72.8565 10.0178C73.8368 8.24706 73.8832 6.66299 71.8502 4.34961C71.4683 4.96427 71.1329 5.6069 70.8467 6.27208C71.3174 6.69614 71.6971 7.21244 71.9624 7.78932C72.2277 8.36621 72.3731 8.99152 72.3896 9.62692C72.5578 9.76404 72.6419 9.83113 72.8565 10.0178Z" fill="#4C1269"/>
<path d="M74.5096 18.7199C74.7516 18.2536 75.0168 17.7999 75.3042 17.3605C75.4753 17.5764 75.5565 17.6814 75.7537 17.9439C76.4642 15.6539 75.8784 14.6124 75.2955 13.3784C74.4603 11.9723 72.5433 10.2482 72.5259 10.2307C70.9453 15.1317 72.2127 17.2117 74.5096 18.7199Z" fill="#4C1269"/>
<path d="M74.2051 19.3298L74.3414 19.0381C72.7173 17.9733 71.7806 16.6722 71.5486 15.1639C70.6414 14.9459 69.718 14.8025 68.7877 14.7351C69.5272 18.2621 71.1251 19.3969 74.2051 19.3298Z" fill="#4C1269"/>
<path d="M76.1858 18.5859C78.3203 16.8355 78.9612 15.0064 77.5228 11.7012C76.8879 12.2385 76.2946 12.8237 75.7479 13.4515C76.5803 14.951 76.6615 16.468 76.0176 18.3438C76.0698 18.4109 76.1278 18.4955 76.1858 18.5859Z" fill="#4C1269"/>
<path d="M76.8906 27.3377C78.6306 24.4204 77.5837 22.4425 77.5431 22.0866C77.0212 20.6183 76.2756 19.2405 75.3332 18.0024C73.3698 21.3835 72.4331 24.2483 74.8721 27.2647C75.2813 26.7419 75.7179 26.2413 76.18 25.7653C76.3888 26.1795 76.586 26.5821 76.8906 27.3377Z" fill="#4C1269"/>
<path d="M74.1703 28.2245C74.3269 27.9969 74.4864 27.7781 74.643 27.5739C73.4539 26.1328 72.9435 24.7267 73.0479 23.1689C72.1009 22.7 71.1174 22.3097 70.1072 22.002C70.0173 25.8644 71.3717 27.4426 74.1703 28.2245Z" fill="#4C1269"/>
<path d="M77.1835 28.1137C79.9821 26.7455 81.174 24.9047 80.4113 20.876C79.5746 21.3024 78.7701 21.7899 78.0042 22.3346C78.532 24.19 78.2391 25.8732 77.0588 27.7607C77.0994 27.8803 77.1429 28.0058 77.1835 28.1137Z" fill="#4C1269"/>
<path d="M75.774 36.9296C78.2159 34.2078 77.5547 32.192 77.6243 31.4364C77.4126 29.6277 76.7833 28.0378 76.0756 26.4333C73.7236 29.1756 71.7893 31.8449 73.0479 35.2872C73.737 34.7011 74.4636 34.1613 75.223 33.6711C75.4881 34.7417 75.6723 35.831 75.774 36.9296Z" fill="#4C1269"/>
<path d="M71.5486 36.6992C71.9082 36.3229 72.3055 35.9407 72.7608 35.5323C72.2282 34.2688 72.1362 32.8613 72.4998 31.5386C71.5634 30.8062 70.5682 30.1534 69.5243 29.5869C68.5934 33.7469 69.8143 35.5177 71.5486 36.6992Z" fill="#4C1269"/>
<path d="M75.8378 37.8718C79.2396 36.9966 80.9681 35.2463 81 30.6516C79.9786 30.9364 78.9801 31.2982 78.0129 31.7339C78.1956 33.8664 77.5111 35.6314 75.803 37.4313C75.8233 37.5743 75.832 37.7114 75.8378 37.8718Z" fill="#4C1269"/>
<path d="M72.1692 45.4305C74.9185 43.4467 75.049 41.7489 75.4057 40.1298C75.6725 37.8252 75.2114 35.2813 74.9968 34.269C72.1373 36.2353 69.3561 38.7908 69.4721 42.2798C70.5131 41.7637 71.5911 41.3269 72.697 40.9729C72.6572 42.4719 72.4805 43.964 72.1692 45.4305Z" fill="#4C1269"/>
<path d="M67.1201 43.6685C67.7556 43.2208 68.4213 42.8182 69.1125 42.4637C69.0211 41.2258 69.2934 39.9882 69.8955 38.9046C69.0715 37.8835 68.1645 36.9331 67.1839 36.0632C66.0065 38.6508 65.2263 41.2034 67.1201 43.6685Z" fill="#4C1269"/>
<path d="M71.8965 46.5361C75.7479 46.4515 78.0535 45.022 79.2193 40.051C78.0504 40.1025 76.887 40.2429 75.7392 40.4711C75.5014 42.1398 74.8489 44.0827 72.0531 45.9672C72.0009 46.1578 71.9487 46.3474 71.8965 46.5361Z" fill="#4C1269"/>
<path d="M66.9287 52.1519C70.1565 50.667 70.5509 48.6716 71.0526 47.8664C72.0097 45.4772 72.2475 42.7554 72.3055 41.4951C68.6397 42.8196 64.9914 44.7041 64.1417 48.4965C65.6839 48.2464 67.2468 48.1487 68.8079 48.2048C68.2915 49.5707 67.6629 50.8909 66.9287 52.1519Z" fill="#4C1269"/>
<path d="M61.3286 49.2112C62.1199 48.9361 62.9315 48.7244 63.756 48.5781C63.9983 47.1991 64.6493 45.926 65.6236 44.9257C65.0399 43.6062 64.3483 42.3377 63.5559 41.1333C61.5838 43.54 59.9742 45.9935 61.3286 49.2112Z" fill="#4C1269"/>
<path d="M75.1302 48.8144C73.8697 48.5174 72.5876 48.3223 71.2962 48.231C70.3914 50.3693 68.9761 51.7112 66.6009 52.6885C66.3921 53.024 66.1775 53.3478 65.96 53.6541C69.7157 54.4885 72.5694 53.5841 75.1302 48.8144Z" fill="#4C1269"/>
<path d="M64.6724 54.7044C66.1398 53.0474 67.4652 50.591 68.283 48.5781C64.771 48.5781 60.3715 49.0711 58.1007 51.7871C59.4034 51.989 60.6896 52.2864 61.9492 52.6769C60.6061 54.5101 59.0404 56.1673 57.2887 57.6099C61.0675 57.7616 62.4857 56.7406 64.6724 54.7044Z" fill="#4C1269"/>
<path d="M57.6773 51.7289C58.3462 50.8585 59.2096 50.1589 60.1975 49.6868C60.1714 48.2953 59.6813 46.0723 59.4232 44.9929C56.8421 46.5011 54.4089 48.5403 54.2204 51.5305C55.3763 51.4916 56.5333 51.558 57.6773 51.7289Z" fill="#4C1269"/>
<path d="M68.5469 57.0965C67.3431 56.3373 66.0827 55.6731 64.7768 55.1099C62.9584 57.0994 60.7166 58.208 56.8247 57.9659L56.5173 58.1905C60.8471 61.2624 64.1649 61.1194 68.5469 57.0965Z" fill="#4C1269"/>
<path d="M50.7896 59.7337C52.5872 59.7165 54.3426 59.1842 55.8502 58.1993C57.686 57.0119 59.5276 55.2237 61.3285 52.8811C54.1073 50.8244 48.6551 51.4896 45.668 58.4881C47.2543 59.1445 48.6928 59.7337 50.7896 59.7337Z" fill="#4C1269"/>
<path d="M45.5056 57.9863C47.1673 54.506 49.6701 52.2947 52.5905 51.7258C52.9242 50.027 53.1114 48.3023 53.1503 46.571C52.1439 46.8161 48.0345 47.9597 46.4249 50.5881C44.9516 52.9803 45.3026 56.5947 45.5056 57.9863Z" fill="#4C1269"/>
<path d="M59.1622 61.8458C58.1286 60.6978 57.0067 59.6336 55.8068 58.6631C52.7385 60.5535 49.3163 60.463 45.9464 59.0102C49.4729 63.6983 53.1097 64.9381 59.1622 61.8458Z" fill="#4C1269"/>
<path d="M35.8105 64.2001C38.6613 60.0284 43.4204 58.526 47.7532 57.6246C47.8456 57.6117 47.9394 57.6346 48.0157 57.6886C48.0919 57.7426 48.145 57.8237 48.1642 57.9156C48.1833 58.0074 48.1671 58.1031 48.1188 58.1834C48.0705 58.2637 47.9937 58.3225 47.904 58.3481C42.9129 59.3895 40.1375 60.889 38.5134 62.2397L38.3336 62.4001C36.4109 64.6027 37.2142 65.9592 37.2142 65.9592C36.7995 66.0445 36.3684 65.9901 35.9874 65.8046C35.5716 65.6359 35.1717 65.4299 34.7926 65.189L35.8105 64.2001Z" fill="#4C1269"/>
<path d="M14.5585 5.25102C15.6461 2.30168 17.7486 1.72114 20.9388 2.00703C19.393 4.86594 17.6616 6.29832 14.5585 5.25102Z" fill="#4C1269"/>
<path d="M14.837 5.71779C16.1797 6.08244 17.6211 6.05327 18.7666 5.2627C19.3553 5.64228 19.913 6.06858 20.4342 6.53754C18.0445 8.01367 16.5306 7.71611 14.837 5.71779Z" fill="#4C1269"/>
<path d="M14.4019 4.66761C14.1351 2.3338 14.8137 0.991867 17.4325 0C17.4771 0.619593 17.4771 1.24162 17.4325 1.86121C16.0637 2.24045 15.0515 3.18564 14.4019 4.66761Z" fill="#4C1269"/>
<path d="M9.03384 11.2139C8.98744 10.8989 8.97874 10.6305 8.97584 10.5984C8.81344 7.43027 10.539 5.83453 13.7436 4.47217C13.7436 5.17231 13.674 7.0977 13.0389 8.53299C12.9577 8.62634 12.4705 10.5459 9.03384 11.2139Z" fill="#4C1269"/>
<path d="M9.50073 11.491C11.3974 11.0476 12.6618 10.1841 13.2709 8.91797C14.0763 8.98424 14.8753 9.11397 15.6606 9.30596C14.0597 12.0832 12.4124 12.655 9.50073 11.491Z" fill="#4C1269"/>
<path d="M8.14061 10.0178C7.16328 8.24706 7.11687 6.66299 9.14985 4.34961C9.53163 4.96382 9.86612 5.60652 10.1504 6.27208C9.68021 6.6964 9.30111 7.21281 9.03632 7.78968C8.77152 8.36655 8.6266 8.99174 8.61043 9.62692C8.44222 9.76404 8.35812 9.83113 8.14061 10.0178Z" fill="#4C1269"/>
<path d="M6.49043 18.7199C6.24887 18.2528 5.98264 17.799 5.6929 17.3605C5.52469 17.5764 5.44059 17.6814 5.24628 17.9439C4.53576 15.6539 5.11868 14.6124 5.7016 13.3784C6.53683 11.9723 8.4538 10.2482 8.4741 10.2307C10.0547 15.1317 8.79892 17.2117 6.49043 18.7199Z" fill="#4C1269"/>
<path d="M6.79494 19.3298L6.65863 19.0381C8.27979 17.9733 9.21943 16.6722 9.45143 15.1639C10.3577 14.9461 11.2801 14.8027 12.2094 14.7351C11.4699 18.2621 9.87485 19.3969 6.79494 19.3298Z" fill="#4C1269"/>
<path d="M4.81128 18.5859C2.67971 16.8443 2.03008 15.0064 3.48014 11.7012C4.11391 12.2388 4.70626 12.8239 5.2521 13.4515C4.42267 14.951 4.33857 16.468 4.98529 18.3438C4.93019 18.4109 4.87219 18.4955 4.81128 18.5859Z" fill="#4C1269"/>
<path d="M4.10946 27.3377C2.36939 24.4204 3.41633 22.4425 3.45403 22.0866C3.97605 20.6189 4.72051 19.2413 5.66102 18.0024C7.62729 21.3835 8.57562 24.2483 6.12213 27.2647C5.71465 26.7413 5.27899 26.2407 4.81709 25.7653C4.55447 26.2768 4.31828 26.8016 4.10946 27.3377Z" fill="#4C1269"/>
<path d="M6.82684 28.2245C6.67024 27.9969 6.51073 27.7781 6.35413 27.5739C7.54607 26.1328 8.05359 24.7267 7.95209 23.1689C8.89866 22.699 9.88225 22.3087 10.8928 22.002C10.9827 25.8644 9.62835 27.4426 6.82684 28.2245Z" fill="#4C1269"/>
<path d="M3.81367 28.1137C1.01506 26.7455 -0.17398 24.8989 0.580048 20.876C1.41674 21.3024 2.22126 21.7899 2.98714 22.3346C2.46512 24.2133 2.76093 25.882 3.94127 27.7695L3.81367 28.1137Z" fill="#4C1269"/>
<path d="M5.22019 36.9296C2.7754 34.2078 3.43952 32.192 3.36702 31.4364C3.57873 29.6277 4.20515 28.0378 4.91568 26.4333C7.26767 29.1727 9.20204 31.8449 7.94049 35.2989C7.25198 34.7121 6.52534 34.1722 5.76541 33.6827C5.50421 34.75 5.32198 35.8353 5.22019 36.9296Z" fill="#4C1269"/>
<path d="M9.44854 36.6992C9.09183 36.3229 8.69451 35.9407 8.2392 35.5323C8.76824 34.268 8.86015 32.8617 8.50021 31.5386C9.43567 30.8064 10.43 30.1536 11.4728 29.5869C12.4067 33.7469 11.1828 35.5177 9.44854 36.6992Z" fill="#4C1269"/>
<path d="M5.15929 37.8718C1.76037 36.9966 0.0319012 35.2463 0 30.6516C1.01723 30.9374 2.01183 31.2992 2.97551 31.7339C2.7899 33.8664 3.47723 35.6314 5.18539 37.4313C5.17669 37.5743 5.16509 37.7114 5.15929 37.8718Z" fill="#4C1269"/>
<path d="M8.83081 45.4305C6.07861 43.4467 5.9481 41.7489 5.59429 40.1298C5.32748 37.8252 5.79149 35.2813 6.0061 34.269C8.86271 36.2353 11.6468 38.7908 11.5308 42.2798C10.4896 41.7642 9.41163 41.3274 8.30589 40.9729C8.34327 42.4719 8.519 43.9642 8.83081 45.4305Z" fill="#4C1269"/>
<path d="M13.8799 43.6685C13.245 43.2215 12.5803 42.819 11.8905 42.4637C11.9818 41.2258 11.7095 39.9882 11.1074 38.9046C11.9314 37.8835 12.8384 36.9331 13.819 36.0632C14.9936 38.6508 15.7708 41.2034 13.8799 43.6685Z" fill="#4C1269"/>
<path d="M9.10344 46.5361C5.2492 46.4515 2.94361 45.022 1.77777 40.051C2.94668 40.1026 4.11005 40.243 5.2579 40.4711C5.49281 42.1398 6.14823 44.0827 8.94394 45.9672C8.99807 46.1578 9.05124 46.3474 9.10344 46.5361Z" fill="#4C1269"/>
<path d="M14.0713 52.1519C10.8406 50.667 10.4404 48.6716 9.94736 47.8664C8.99033 45.4772 8.74672 42.7554 8.70032 41.4951C12.369 42.8196 16.0173 44.7041 16.867 48.4965C15.3248 48.2464 13.7619 48.1487 12.2007 48.2048C12.7131 49.5709 13.3389 50.8913 14.0713 52.1519Z" fill="#4C1269"/>
<path d="M19.6685 49.2112C18.8783 48.9357 18.0676 48.724 17.244 48.5781C16.9968 47.1996 16.3442 45.9273 15.3705 44.9257C15.9555 43.6062 16.6481 42.3378 17.4412 41.1333C19.4307 43.54 21.0229 45.9935 19.6685 49.2112Z" fill="#4C1269"/>
<path d="M5.86981 48.8144C7.12926 48.5172 8.41039 48.3221 9.70085 48.231C10.6086 50.3693 12.0209 51.7112 14.399 52.6885C14.6049 53.024 14.8195 53.3478 15.0371 53.6541C11.2814 54.4885 8.42771 53.5841 5.86981 48.8144Z" fill="#4C1269"/>
<path d="M16.3363 54.7044C14.8688 53.0474 13.5406 50.591 12.7256 48.5781C16.2348 48.5781 20.6342 49.0711 22.905 51.7871C21.6033 51.9887 20.318 52.2861 19.0595 52.6769C20.3993 54.5109 21.961 56.1699 23.7084 57.6158C19.9295 57.7616 18.5143 56.7406 16.3363 54.7044Z" fill="#4C1269"/>
<path d="M23.3227 51.7289C22.6525 50.8585 21.7882 50.1589 20.7996 49.6868C20.8286 48.2953 21.3187 46.0723 21.5768 44.9929C24.1579 46.5011 26.5882 48.5403 26.7767 51.5305C25.6217 51.4916 24.4657 51.558 23.3227 51.7289Z" fill="#4C1269"/>
<path d="M12.4501 57.0965C13.6546 56.3385 14.915 55.6744 16.2203 55.1099C18.0415 57.0994 20.2804 58.208 24.1724 57.9659L24.4827 58.1905C20.1528 61.2624 16.8206 61.1194 12.4501 57.0965Z" fill="#4C1269"/>
<path d="M30.2104 59.7337C28.4127 59.7171 26.6571 59.1848 25.1498 58.1993C23.3169 57.0119 21.4724 55.2237 19.6714 52.8811C26.8898 50.8244 32.3449 51.4896 35.332 58.4881C33.7428 59.1445 32.3043 59.7337 30.2104 59.7337Z" fill="#4C1269"/>
<path d="M35.4944 57.9863C33.8297 54.506 31.3211 52.2947 28.421 51.7258C28.0806 50.0276 27.8865 48.3029 27.841 46.571C28.8444 46.8161 32.9568 47.9597 34.5664 50.5881C36.0367 52.9803 35.6974 56.5947 35.4944 57.9863Z" fill="#4C1269"/>
<path d="M21.832 61.8458C22.8676 60.6988 23.9904 59.6346 25.1904 58.6631C28.2587 60.5535 31.6808 60.463 35.0507 59.0102C31.5271 63.6983 27.8875 64.9381 21.832 61.8458Z" fill="#4C1269"/>
<path d="M45.1895 64.2001C42.3387 60.0284 37.5796 58.526 33.2468 57.6246C33.1544 57.6117 33.0606 57.6346 32.9843 57.6886C32.9081 57.7426 32.855 57.8237 32.8358 57.9156C32.8167 58.0074 32.8329 58.1031 32.8812 58.1834C32.9295 58.2637 33.0063 58.3225 33.096 58.3481C38.0871 59.3895 40.8625 60.889 42.4866 62.2397L42.6664 62.4001C44.5891 64.6027 43.7858 65.9592 43.7858 65.9592C44.2005 66.0445 44.6316 65.9901 45.0126 65.8046C45.428 65.6351 45.8279 65.4291 46.2074 65.189L45.1895 64.2001Z" fill="#4C1269"/>
<path d="M43.9674 11.9323V38H37.9339V18.7357L31.9899 20.4723V15.889L43.4124 11.9323H43.9674Z" fill="#4C1269"/>
</g>
<defs>
<clipPath id="clip0_11_741">
<rect width="81" height="66" fill="white"/>
</clipPath>
</defs>
</svg>
