<svg xmlns="http://www.w3.org/2000/svg" viewBox="0 0 511.998 511.998" style="enable-background:new 0 0 511.998 511.998" xml:space="preserve"><circle cx="264.358" cy="55.54" r="42.502"/><path d="M418.946 203.093c-9.346-5.34-21.253-2.092-26.593 7.255-3.145 5.504-3.291 11.889-.987 17.305l-3.069 5.372-29.226-30.973-24.156-74.089c-2.414-7.404-8.961-12.298-16.251-12.975v-.267h-94.239c-.222-.096-.431-.208-.659-.297L166.9 92.138l-4.832-55.134 10.35.042c3.541 4.701 9.143 7.764 15.484 7.791 10.765.043 19.527-8.647 19.57-19.411.043-10.765-8.647-19.527-19.412-19.57-6.339-.026-11.968 2.992-15.546 7.664l-12.904-.052C157.086 5.054 148.933-.717 139.836.072c-7.886.692-14.208 6.129-16.418 13.25l-5.138-.021c-3.541-4.701-9.143-7.765-15.484-7.791-10.763-.045-19.526 8.646-19.57 19.41-.044 10.765 8.647 19.527 19.412 19.57 6.339.025 11.968-2.992 15.546-7.664l5.879.023 6.159 70.278a18.922 18.922 0 0 0 11.947 15.966l67.787 26.565c.032.013.065.021.099.033v132.598l-46.906 199.465c-3.11 13.228 5.091 26.474 18.319 29.585 13.235 3.11 26.475-5.095 29.585-18.319l47.575-202.305h11.464l47.575 202.305c3.11 13.226 16.352 21.429 29.585 18.319 13.229-3.111 21.43-16.357 18.319-29.585L318.664 282.29v-82.082l5.74 17.608a18.912 18.912 0 0 0 4.228 7.121l40.04 42.435-4.21 7.369c-5.836.765-11.261 4.133-14.406 9.638-5.34 9.346-2.092 21.253 7.255 26.593 9.346 5.34 21.253 2.092 26.593-7.255 3.145-5.504 3.291-11.889.987-17.305l2.415-4.227c6.139 1.285 12.386-.51 16.88-4.749 7.523-7.1 7.929-18.9.98-26.51l6.629-11.603c5.836-.765 11.261-4.134 14.406-9.638 5.34-9.346 2.091-21.251-7.255-26.592z"/></svg>